<svg width="450" height="300" viewBox="0 0 450 300" fill="none" xmlns="http://www.w3.org/2000/svg">
<path d="M422.4 164.4C422.4 164.4 414 75 346.2 40.2C278.4 5.40002 243 16.2 199.8 36C156.6 55.8 140.358 91.512 103.2 108.6C66.042 125.688 12 137.4 9.6 178.2C7.2 219 21.6 246.6 42 257.4C62.4 268.2 82.2 268.2 82.2 268.2H395.4C395.4 268.2 434.4 248.4 422.4 164.4Z" fill="#8B5CF6"/>
<path opacity="0.7" d="M422.4 164.4C422.4 164.4 414 75 346.2 40.2C278.4 5.40002 243 16.2 199.8 36C156.6 55.8 140.358 91.512 103.2 108.6C66.042 125.688 12 137.4 9.6 178.2C7.2 219 21.6 246.6 42 257.4C62.4 268.2 82.2 268.2 82.2 268.2H395.4C395.4 268.2 434.4 248.4 422.4 164.4Z" fill="white"/>
<g opacity="0.3">
<path d="M91.2 25.2C91.2 25.2 91.482 25.08 92.034 24.864" stroke="black" stroke-linecap="round" stroke-linejoin="round"/>
<path d="M94.836 23.838C104.85 20.4 134.484 12.15 170.4 20.4C219.552 31.692 299.52 122.184 368.4 100.2C412.464 86.136 407.748 24.78 359.4 20.652C302.778 15.816 285.102 43.632 281.172 51.798" stroke="black" stroke-linecap="round" stroke-linejoin="round" stroke-dasharray="2.99 4.98"/>
<path d="M280.524 53.16C280.296 53.7 280.2 54 280.2 54" stroke="black" stroke-linecap="round" stroke-linejoin="round"/>
</g>
<g opacity="0.3">
<path d="M279.132 249.78L280.974 253.512L285.096 254.112L282.114 257.016L282.816 261.12L279.132 259.188L275.442 261.12L276.15 257.016L273.168 254.112L277.29 253.512L279.132 249.78Z" stroke="black" stroke-linecap="round" stroke-linejoin="round"/>
<path d="M296.766 249.78L298.608 253.512L302.73 254.112L299.748 257.016L300.45 261.12L296.766 259.188L293.082 261.12L293.784 257.016L290.802 254.112L294.924 253.512L296.766 249.78Z" stroke="black" stroke-linecap="round" stroke-linejoin="round"/>
<path d="M314.4 249.78L316.242 253.512L320.364 254.112L317.382 257.016L318.084 261.12L314.4 259.188L310.716 261.12L311.418 257.016L308.436 254.112L312.558 253.512L314.4 249.78Z" stroke="black" stroke-linecap="round" stroke-linejoin="round"/>
<path d="M332.034 249.78L333.876 253.512L337.998 254.112L335.016 257.016L335.718 261.12L332.034 259.188L328.35 261.12L329.052 257.016L326.07 254.112L330.192 253.512L332.034 249.78Z" stroke="black" stroke-linecap="round" stroke-linejoin="round"/>
<path d="M349.668 249.78L351.51 253.512L355.632 254.112L352.65 257.016L353.352 261.12L349.668 259.188L345.984 261.12L346.686 257.016L343.704 254.112L347.826 253.512L349.668 249.78Z" stroke="black" stroke-linecap="round" stroke-linejoin="round"/>
</g>
<g opacity="0.3">
<path d="M422.664 17.094H381.648V48.096H422.664V17.094Z" stroke="black" stroke-linecap="round" stroke-linejoin="round"/>
<path d="M422.664 17.094H381.648V21.936H422.664V17.094Z" stroke="black" stroke-linecap="round" stroke-linejoin="round"/>
<path d="M397.23 30C397.23 29.2334 397.003 28.484 396.577 27.8466C396.151 27.2092 395.546 26.7124 394.837 26.4191C394.129 26.1257 393.35 26.0489 392.598 26.1985C391.846 26.3481 391.155 26.7172 390.613 27.2593C390.071 27.8013 389.702 28.492 389.553 29.2439C389.403 29.9957 389.48 30.7751 389.773 31.4833C390.066 32.1916 390.563 32.7969 391.201 33.2228C391.838 33.6487 392.587 33.876 393.354 33.876C394.382 33.876 395.368 33.4677 396.095 32.7408C396.822 32.0139 397.23 31.028 397.23 30Z" stroke="black" stroke-linecap="round" stroke-linejoin="round"/>
<path d="M392.4 36.15H394.338C395.665 36.15 396.938 36.6772 397.876 37.6156C398.815 38.5541 399.342 39.8269 399.342 41.154V44.868H387.378V41.154C387.378 40.4953 387.508 39.8432 387.761 39.2349C388.013 38.6266 388.383 38.0742 388.85 37.6093C389.317 37.1444 389.87 36.7761 390.48 36.5257C391.089 36.2753 391.741 36.1476 392.4 36.15Z" stroke="black" stroke-linecap="round" stroke-linejoin="round"/>
<path d="M405.222 28.722H420.078" stroke="black" stroke-linecap="round" stroke-linejoin="round"/>
<path d="M405.222 32.916H420.078" stroke="black" stroke-linecap="round" stroke-linejoin="round"/>
<path d="M405.222 37.116H420.078" stroke="black" stroke-linecap="round" stroke-linejoin="round"/>
<path d="M405.222 41.316H420.078" stroke="black" stroke-linecap="round" stroke-linejoin="round"/>
</g>
<g opacity="0.3">
<path d="M33.6 223.2H11.4V192.6H30.162L33.6 197.256V223.2Z" stroke="black" stroke-linecap="round" stroke-linejoin="round"/>
<path d="M30.162 192.6V197.256H33.6" stroke="black" stroke-linecap="round" stroke-linejoin="round"/>
<path d="M16.668 201.078H28.632" stroke="black" stroke-linecap="round" stroke-linejoin="round"/>
<path d="M16.668 205.656H28.632" stroke="black" stroke-linecap="round" stroke-linejoin="round"/>
<path d="M16.668 210.24H28.632" stroke="black" stroke-linecap="round" stroke-linejoin="round"/>
<path d="M16.668 214.824H28.632" stroke="black" stroke-linecap="round" stroke-linejoin="round"/>
</g>
<g opacity="0.3">
<path d="M78.8958 14.8868L35.5296 36.6124L48.6069 62.7159L91.9732 40.9902L78.8958 14.8868Z" fill="white" stroke="black" stroke-linecap="round" stroke-linejoin="round"/>
<path d="M35.526 36.612L65.676 42.648L78.894 14.886" stroke="black" stroke-linecap="round" stroke-linejoin="round"/>
<path d="M48.606 62.718L57.258 41.136" stroke="black" stroke-linecap="round" stroke-linejoin="round"/>
<path d="M91.968 40.992L70.128 34.092" stroke="black" stroke-linecap="round" stroke-linejoin="round"/>
</g>
<path d="M369 268.2H423" stroke="#263238" stroke-linecap="round" stroke-linejoin="round"/>
<path d="M101.4 268.2H362.4" stroke="#263238" stroke-linecap="round" stroke-linejoin="round"/>
<path d="M19.2 268.2H96" stroke="#263238" stroke-linecap="round" stroke-linejoin="round"/>
<path d="M222.6 282C332.615 282 421.8 280.12 421.8 277.8C421.8 275.48 332.615 273.6 222.6 273.6C112.585 273.6 23.4 275.48 23.4 277.8C23.4 280.12 112.585 282 222.6 282Z" fill="#CCCCCC"/>
<path d="M363.186 192.144C363.186 192.144 379.002 204.702 386.586 217.788C394.17 230.874 393.918 239.742 393.918 239.742C393.918 239.742 371.58 223.8 366.522 213C363.496 206.492 362.34 199.271 363.186 192.144Z" fill="#8B5CF6"/>
<path d="M430.02 174.636C430.02 174.636 433.482 197.184 425.184 211.068C416.886 224.952 394.05 239.4 394.05 239.4C394.05 239.4 390.768 229.266 402.738 213.87C414.708 198.474 430.02 174.636 430.02 174.636Z" fill="#8B5CF6"/>
<path d="M392.85 214.386C392.85 214.386 393.072 197.034 403.842 179.154C414.612 161.274 427.518 143.154 430.548 135.45C432.562 130.121 434.192 124.655 435.426 119.094C435.426 119.094 439.908 133.962 431.52 153.744C423.132 173.526 392.85 214.386 392.85 214.386Z" fill="#8B5CF6"/>
<path d="M393.666 207.258C393.666 207.258 380.952 191.088 372.168 172.596C363.384 154.104 364.8 134.904 364.8 134.904C364.8 134.904 381.288 156.276 386.532 172.968C391.776 189.66 393.666 207.258 393.666 207.258Z" fill="#8B5CF6"/>
<path d="M396.186 170.7C396.186 170.7 399.186 144.132 406.338 129.39C413.49 114.648 428.16 91.866 428.16 91.866C428.16 91.866 429.96 117.372 418.434 137.724C406.908 158.076 396.186 170.7 396.186 170.7Z" fill="#8B5CF6"/>
<path d="M396.774 155.442C396.774 155.442 381.87 133.242 377.802 117.366C373.734 101.49 370.2 74.634 370.2 74.634C370.2 74.634 388.068 92.922 392.436 115.896C396.804 138.87 396.774 155.442 396.774 155.442Z" fill="#8B5CF6"/>
<path d="M389.4 59.628C389.4 59.628 403.392 69.948 401.178 91.614C398.964 113.28 396.828 120.6 396.828 120.6C399 105.756 389.4 59.628 389.4 59.628Z" fill="#8B5CF6"/>
<path d="M394.308 246.63C394.308 246.63 393 243.204 393 217.068C393 190.932 396.426 180.654 396.426 154.95C396.426 129.246 398.142 105.252 398.142 105.252" stroke="#263238" stroke-width="0.75" stroke-miterlimit="10"/>
<path d="M396.27 168.168C396.27 168.168 405.582 148.104 409.524 140.568C413.178 133.596 417.408 122.292 417.408 122.292" stroke="#263238" stroke-width="0.75" stroke-miterlimit="10"/>
<path d="M414 176.4C408.27 186.996 395.208 211.056 392.85 214.398" stroke="#263238" stroke-width="0.75" stroke-miterlimit="10"/>
<path d="M416.694 171.39L415.068 174.39" stroke="#263238" stroke-width="0.75" stroke-miterlimit="10"/>
<path d="M379.296 171.228L376.206 163.866" stroke="#263238" stroke-width="0.75" stroke-miterlimit="10"/>
<path d="M393.042 203.994L380.664 174.498" stroke="#263238" stroke-width="0.75" stroke-miterlimit="10"/>
<path d="M383.268 226.362C380.61 223.056 377.814 219.372 375.468 215.82" stroke="#263238" stroke-width="0.75" stroke-miterlimit="10"/>
<path d="M408.432 220.602C402.228 228.078 393.042 237.678 393.042 237.678C393.042 237.678 389.814 234.228 385.776 229.41" stroke="#263238" stroke-width="0.75" stroke-miterlimit="10"/>
<path d="M413.106 214.386C412.397 215.509 411.63 216.595 410.808 217.638" stroke="#263238" stroke-width="0.75" stroke-miterlimit="10"/>
<path d="M387.972 123.636L385.878 116.574" stroke="#263238" stroke-width="0.75" stroke-miterlimit="10"/>
<path d="M396.27 151.686L389.076 127.386" stroke="#263238" stroke-width="0.75" stroke-miterlimit="10"/>
<path d="M375.882 234.132H413.274V247.488H409.746L405.192 276.87H383.958L379.41 247.488H375.882V234.132Z" fill="#263238"/>
<path d="M212.298 236.454C212.298 236.454 218.778 264.318 215.958 268.896C212.268 274.896 172.992 278.496 172.992 278.496H259.602C259.602 278.496 270.456 275.454 267.192 266.724C264.666 259.974 252.552 236.454 252.552 236.454H212.298Z" fill="white" stroke="#263238" stroke-linecap="round" stroke-linejoin="round"/>
<path d="M210.402 236.454C210.402 236.454 217.314 264.552 214.062 268.896C210.81 273.24 172.992 276.564 172.992 276.564H259.992C259.992 276.564 267.312 273.606 265.278 266.724C263.244 259.842 250.638 236.454 250.638 236.454H210.402Z" fill="white" stroke="#263238" stroke-linecap="round" stroke-linejoin="round"/>
<path d="M250.656 236.454H210.402C210.402 236.454 214.494 253.104 214.896 262.752H263.784C259.83 253.476 250.656 236.454 250.656 236.454Z" fill="#263238" stroke="#263238" stroke-linecap="round" stroke-linejoin="round"/>
<path d="M259.602 276.708H172.992V278.496H259.602V276.708Z" fill="white" stroke="#263238" stroke-linecap="round" stroke-linejoin="round"/>
<path d="M359.052 43.2H107.898C105.088 43.2 102.81 45.478 102.81 48.288V234.114C102.81 236.924 105.088 239.202 107.898 239.202H359.052C361.862 239.202 364.14 236.924 364.14 234.114V48.288C364.14 45.478 361.862 43.2 359.052 43.2Z" fill="white" stroke="#263238" stroke-linecap="round" stroke-linejoin="round"/>
<path d="M352.896 43.2H101.742C98.932 43.2 96.654 45.478 96.654 48.288V234.114C96.654 236.924 98.932 239.202 101.742 239.202H352.896C355.706 239.202 357.984 236.924 357.984 234.114V48.288C357.984 45.478 355.706 43.2 352.896 43.2Z" fill="#263238" stroke="#263238" stroke-linecap="round" stroke-linejoin="round"/>
<path d="M96.654 208.734H357.984V234.108C357.984 235.457 357.448 236.752 356.494 237.706C355.54 238.66 354.245 239.196 352.896 239.196H101.742C100.393 239.196 99.0984 238.66 98.1442 237.706C97.19 236.752 96.654 235.457 96.654 234.108V208.734Z" fill="white" stroke="#263238" stroke-linecap="round" stroke-linejoin="round"/>
<path d="M232.14 223.968C232.14 223.019 231.858 222.091 231.331 221.301C230.804 220.512 230.054 219.897 229.177 219.533C228.3 219.17 227.335 219.075 226.404 219.26C225.472 219.445 224.617 219.903 223.946 220.574C223.275 221.245 222.817 222.1 222.632 223.032C222.447 223.963 222.542 224.928 222.905 225.805C223.269 226.682 223.884 227.432 224.673 227.959C225.463 228.487 226.391 228.768 227.34 228.768C228.613 228.768 229.834 228.262 230.734 227.362C231.634 226.462 232.14 225.241 232.14 223.968Z" fill="#263238" stroke="#263238" stroke-linecap="round" stroke-linejoin="round"/>
<path d="M344.838 55.392H109.794V193.866H344.838V55.392Z" fill="#949494" stroke="#263238" stroke-linejoin="round"/>
<path d="M317.982 55.392H193.95V193.866H317.982V55.392Z" fill="#EDEDED" stroke="#263238" stroke-miterlimit="10"/>
<path d="M251.634 130.74C253.46 130.74 254.94 129.26 254.94 127.434C254.94 125.608 253.46 124.128 251.634 124.128C249.808 124.128 248.328 125.608 248.328 127.434C248.328 129.26 249.808 130.74 251.634 130.74Z" fill="white" stroke="#263238" stroke-linecap="round" stroke-linejoin="round"/>
<path d="M265.686 130.74C267.512 130.74 268.992 129.26 268.992 127.434C268.992 125.608 267.512 124.128 265.686 124.128C263.86 124.128 262.38 125.608 262.38 127.434C262.38 129.26 263.86 130.74 265.686 130.74Z" fill="white" stroke="#263238" stroke-linecap="round" stroke-linejoin="round"/>
<path d="M279.738 130.74C281.564 130.74 283.044 129.26 283.044 127.434C283.044 125.608 281.564 124.128 279.738 124.128C277.912 124.128 276.432 125.608 276.432 127.434C276.432 129.26 277.912 130.74 279.738 130.74Z" fill="white" stroke="#263238" stroke-linecap="round" stroke-linejoin="round"/>
<path d="M293.79 130.74C295.616 130.74 297.096 129.26 297.096 127.434C297.096 125.608 295.616 124.128 293.79 124.128C291.964 124.128 290.484 125.608 290.484 127.434C290.484 129.26 291.964 130.74 293.79 130.74Z" fill="white" stroke="#263238" stroke-linecap="round" stroke-linejoin="round"/>
<path d="M211.212 55.392H135.588V193.866H211.212V55.392Z" fill="white" stroke="#263238" stroke-linecap="round" stroke-linejoin="round"/>
<path d="M317.976 55.392H135.588V104.334H317.976V55.392Z" fill="#8B5CF6" stroke="#263238" stroke-linecap="round" stroke-linejoin="round"/>
<path d="M211.2 55.392H135.588V104.334H211.2V55.392Z" fill="#263238" stroke="#263238" stroke-linecap="round" stroke-linejoin="round"/>
<path d="M344.838 55.392H338.4V193.866H344.838V55.392Z" fill="#D4D4D4" stroke="#263238" stroke-linejoin="round"/>
<path d="M344.838 108H338.4V144H344.838V108Z" fill="#949494" stroke="#263238" stroke-linejoin="round"/>
<path d="M344.838 55.392H109.794V66.588H344.838V55.392Z" fill="#D4D4D4" stroke="#263238" stroke-linejoin="round"/>
<path d="M235.17 58.29H127.824V64.386H235.17V58.29Z" fill="white" stroke="#263238" stroke-linecap="round" stroke-linejoin="round"/>
<path d="M185.508 110.653C193.739 102.422 193.739 89.0759 185.508 80.8444C177.276 72.613 163.93 72.613 155.699 80.8444C147.467 89.0759 147.467 102.422 155.699 110.653C163.93 118.885 177.276 118.885 185.508 110.653Z" fill="white" stroke="#263238" stroke-linecap="round" stroke-linejoin="round"/>
<path d="M170.604 116.826C174.219 116.83 177.774 115.903 180.926 114.134C184.079 112.365 186.723 109.815 188.604 106.728L176.346 103.29L165.264 103.452L155.022 109.908C156.991 112.087 159.395 113.828 162.079 115.019C164.763 116.211 167.667 116.827 170.604 116.826Z" fill="white" stroke="#263238" stroke-linecap="round" stroke-linejoin="round"/>
<path d="M171.12 116.808C171.84 116.793 172.559 116.74 173.274 116.652L172.956 115.344L175.044 111.144L172.47 107.124L168.27 111.462L171.324 115.158L171.12 116.808Z" fill="#263238" stroke="#263238" stroke-linecap="round" stroke-linejoin="round"/>
<path d="M167.802 116.64L164.838 103.71L155.004 109.908C158.339 113.596 162.874 115.982 167.802 116.64Z" fill="#8B5CF6" stroke="#263238" stroke-linecap="round" stroke-linejoin="round"/>
<path d="M188.586 106.728L179.736 104.25L177.336 115.722C182.025 114.136 186.006 110.952 188.586 106.728Z" fill="#8B5CF6" stroke="#263238" stroke-linecap="round" stroke-linejoin="round"/>
<path d="M171.876 110.154L166.902 113.898L162.918 104.166L165.156 100.698L177.336 100.08L180.216 103.962L177.846 112.806L171.876 110.154Z" fill="white" stroke="#263238" stroke-linecap="round" stroke-linejoin="round"/>
<path d="M166.17 96.96L167.292 103.14L171.876 110.154L176.088 101.886L175.818 96.666L166.17 96.96Z" fill="white" stroke="#263238" stroke-linecap="round" stroke-linejoin="round"/>
<path d="M175.908 98.4L175.836 97.02L174.558 96.726L166.158 96.978L167.28 103.158L167.934 104.16C171.48 102.69 174.432 99.93 175.908 98.4Z" fill="#263238" stroke="#263238" stroke-linecap="round" stroke-linejoin="round"/>
<path d="M162.288 89.73C162.288 89.73 160.602 87.93 160.38 89.25C160.158 90.57 160.848 92.85 161.904 93.66C162.96 94.47 163.908 93.126 163.908 93.126L162.288 89.73Z" fill="white" stroke="#263238" stroke-linecap="round" stroke-linejoin="round"/>
<path d="M178.248 88.92C178.248 88.92 179.742 86.964 180.096 88.248C180.45 89.532 179.988 91.848 179.022 92.79C178.056 93.732 176.976 92.46 176.976 92.46L178.248 88.92Z" fill="white" stroke="#263238" stroke-linecap="round" stroke-linejoin="round"/>
<path d="M162.96 91.584L161.34 88.2C160.045 86.3755 159.149 84.2982 158.712 82.104C157.944 78.378 159.234 75.27 160.92 74.304C161.868 73.7359 162.986 73.5233 164.076 73.704C164.076 73.704 164.4 71.514 169.668 69.654C174.936 67.794 180.75 71.118 180.66 72.282C180.57 73.446 179.154 73.95 179.154 73.95C179.154 73.95 183.288 75.48 181.794 77.436C180.873 78.629 179.68 79.5837 178.314 80.22C178.612 81.206 178.857 82.2075 179.046 83.22C179.256 84.516 178.092 90.078 178.092 90.078L175.23 82.278L166.272 82.734C166.272 82.734 165.744 86.526 164.796 87.876C164.19 88.9038 163.851 90.0674 163.812 91.26C163.812 91.26 163.452 92.712 162.96 91.584Z" fill="#696969" stroke="#263238" stroke-linejoin="round"/>
<path d="M164.556 77.448C164.538 79.7846 164.367 82.1175 164.046 84.432C163.855 85.7187 163.189 86.8874 162.18 87.708C162.18 87.708 163.32 93.012 164.766 95.832C166.212 98.652 169.23 100.968 172.254 100.668C175.278 100.368 177.714 96.912 178.002 94.002C178.29 91.092 176.868 80.304 176.868 80.304C176.868 80.304 167.4 81.942 164.556 77.448Z" fill="white" stroke="#263238" stroke-linecap="round" stroke-linejoin="round"/>
<path d="M168.78 94.152C168.78 94.152 170.412 95.556 174.072 94.308" stroke="#263238" stroke-linecap="round" stroke-linejoin="round"/>
<path d="M165.234 85.92C165.234 85.92 165.42 84.3 168.096 84.162" stroke="#263238" stroke-linecap="round" stroke-linejoin="round"/>
<path d="M172.38 83.808C172.987 83.5573 173.658 83.5089 174.295 83.6699C174.932 83.831 175.499 84.1929 175.914 84.702" stroke="#263238" stroke-linecap="round" stroke-linejoin="round"/>
<path d="M171.438 86.4C171.438 86.4 171.87 89.598 171.888 90C171.906 90.402 173.256 90.468 172.896 91.296C172.536 92.124 171.366 93 170.4 92.4" stroke="#263238" stroke-linecap="round" stroke-linejoin="round"/>
<path d="M174.978 87.438C175.008 88.038 174.738 88.524 174.378 88.542C174.018 88.56 173.682 88.098 173.652 87.51C173.622 86.922 173.898 86.418 174.252 86.4C174.606 86.382 174.948 86.85 174.978 87.438Z" fill="#263238"/>
<path d="M168.036 88.068C168.066 88.668 167.79 89.154 167.436 89.172C167.082 89.19 166.74 88.728 166.71 88.134C166.68 87.54 166.956 87.048 167.31 87.03C167.664 87.012 168 87.474 168.036 88.068Z" fill="#263238"/>
<path d="M217.8 79.506H285.75" stroke="#263238" stroke-linecap="round" stroke-linejoin="round"/>
<path d="M217.8 85.908H264.294" stroke="#263238" stroke-linecap="round" stroke-linejoin="round"/>
<path d="M217.8 96.306H310.194" stroke="#263238" stroke-linecap="round" stroke-linejoin="round"/>
<path d="M143.082 125.526C143.868 125.526 144.21 125.994 144.21 126.726V127.326C144.21 128.124 143.838 128.526 143.01 128.526H142.518V130.512H141.954V125.472L143.082 125.526ZM143.034 128.076C143.454 128.076 143.634 127.878 143.634 127.398V126.726C143.634 126.27 143.466 126.036 143.034 126.036H142.494V128.076H143.034Z" fill="#263238"/>
<path d="M146.442 127.758V128.262H145.242V130.062H146.754V130.572H144.678V125.532H146.754V126.042H145.2V127.764L146.442 127.758Z" fill="#263238"/>
<path d="M148.362 125.526C149.154 125.526 149.484 125.928 149.484 126.678V127.086C149.484 127.644 149.292 127.986 148.884 128.124C149.346 128.262 149.52 128.634 149.52 129.174V129.96C149.505 130.165 149.538 130.37 149.616 130.56H149.052C148.973 130.37 148.94 130.165 148.956 129.96V129.168C148.956 128.568 148.692 128.418 148.224 128.418H147.828V130.572H147.264V125.532L148.362 125.526ZM148.218 127.926C148.668 127.926 148.932 127.782 148.932 127.236V126.75C148.932 126.3 148.77 126.06 148.332 126.06H147.786V127.926H148.218Z" fill="#263238"/>
<path d="M152.256 126.738V126.87H151.728V126.708C151.728 126.252 151.554 125.988 151.128 125.988C150.702 125.988 150.528 126.252 150.528 126.702C150.528 127.83 152.22 127.938 152.22 129.354C152.22 130.116 151.848 130.614 151.08 130.614C150.312 130.614 149.952 130.116 149.952 129.354V129.066H150.474V129.384C150.474 129.84 150.666 130.104 151.074 130.104C151.482 130.104 151.674 129.84 151.674 129.384C151.674 128.262 149.988 128.184 149.988 126.738C149.988 125.958 150.348 125.478 151.104 125.478C151.86 125.478 152.256 126 152.256 126.738Z" fill="#263238"/>
<path d="M152.712 126.744C152.712 125.97 153.096 125.478 153.864 125.478C154.632 125.478 155.022 125.97 155.022 126.744V129.348C155.022 130.11 154.644 130.614 153.864 130.614C153.084 130.614 152.712 130.11 152.712 129.348V126.744ZM153.27 129.378C153.27 129.84 153.462 130.104 153.87 130.104C154.278 130.104 154.47 129.84 154.47 129.378V126.714C154.47 126.264 154.278 125.988 153.87 125.988C153.462 125.988 153.27 126.264 153.27 126.714V129.378Z" fill="#263238"/>
<path d="M156.054 130.566H155.55V125.526H156.264L157.428 129.168V125.526H157.926V130.566H157.326L156.036 126.492L156.054 130.566Z" fill="#263238"/>
<path d="M159.072 129.552L158.874 130.566H158.358L159.324 125.526H160.134L161.1 130.566H160.536L160.344 129.552H159.072ZM159.144 129.066H160.266L159.696 126.162L159.144 129.066Z" fill="#263238"/>
<path d="M163.758 125.526C164.55 125.526 164.886 125.994 164.886 126.726V127.326C164.886 128.124 164.514 128.526 163.716 128.526H163.2V130.512H162.636V125.472L163.758 125.526ZM163.716 128.076C164.13 128.076 164.316 127.878 164.316 127.398V126.726C164.316 126.27 164.148 126.036 163.716 126.036H163.2V128.076H163.716Z" fill="#263238"/>
<path d="M166.452 125.526C167.244 125.526 167.574 125.928 167.574 126.678V127.086C167.608 127.306 167.564 127.53 167.449 127.72C167.333 127.91 167.155 128.053 166.944 128.124C167.406 128.262 167.58 128.634 167.58 129.174V129.96C167.564 130.165 167.599 130.372 167.682 130.56H167.082C167.003 130.37 166.97 130.165 166.986 129.96V129.168C166.986 128.568 166.722 128.418 166.254 128.418H165.858V130.572H165.3V125.532L166.452 125.526ZM166.308 127.926C166.752 127.926 167.016 127.782 167.016 127.236V126.75C167.016 126.3 166.854 126.06 166.416 126.06H165.87V127.926H166.308Z" fill="#263238"/>
<path d="M168.12 126.744C168.12 125.97 168.504 125.478 169.272 125.478C170.04 125.478 170.43 125.97 170.43 126.744V129.348C170.43 130.11 170.052 130.614 169.272 130.614C168.492 130.614 168.12 130.11 168.12 129.348V126.744ZM168.678 129.378C168.678 129.84 168.87 130.104 169.278 130.104C169.686 130.104 169.878 129.84 169.878 129.378V126.714C169.878 126.264 169.686 125.988 169.278 125.988C168.87 125.988 168.678 126.264 168.678 126.714V129.378Z" fill="#263238"/>
<path d="M172.686 127.872V128.4H171.528V130.584H170.964V125.544H172.968V126.054H171.528V127.89L172.686 127.872Z" fill="#263238"/>
<path d="M174 125.526V130.566H173.4V125.526H174Z" fill="#263238"/>
<path d="M174.552 130.566V125.526H175.11V130.056H176.55V130.566H174.552Z" fill="#263238"/>
<path d="M178.8 127.758V128.262H177.54V130.062H179.052V130.572H177V125.532H179.076V126.042H177.54V127.764L178.8 127.758Z" fill="#263238"/>
<path d="M218.76 126.738V126.87H218.226V126.708C218.226 126.252 218.058 125.988 217.626 125.988C217.194 125.988 217.026 126.252 217.026 126.702C217.026 127.83 218.718 127.938 218.718 129.354C218.718 130.116 218.352 130.614 217.584 130.614C216.816 130.614 216.456 130.116 216.456 129.354V129.066H216.978V129.384C216.978 129.84 217.164 130.104 217.578 130.104C217.992 130.104 218.178 129.84 218.178 129.384C218.178 128.262 216.492 128.184 216.492 126.738C216.492 125.958 216.852 125.478 217.608 125.478C218.364 125.478 218.76 126 218.76 126.738Z" fill="#263238"/>
<path d="M220.116 128.4L219.822 128.898V130.59H219.258V125.55H219.822V127.986L221.16 125.55H221.724L220.452 127.8L221.772 130.542H221.172L220.116 128.4Z" fill="#263238"/>
<path d="M222.768 125.526V130.566H222.204V125.526H222.768Z" fill="#263238"/>
<path d="M223.344 130.566V125.526H223.902V130.056H225.342V130.566H223.344Z" fill="#263238"/>
<path d="M225.768 130.566V125.526H226.326V130.056H227.766V130.566H225.768Z" fill="#263238"/>
<path d="M230.4 126.738V126.87H229.866V126.708C229.866 126.252 229.692 125.988 229.266 125.988C228.84 125.988 228.666 126.252 228.666 126.702C228.666 127.83 230.358 127.938 230.358 129.354C230.358 130.116 229.992 130.614 229.218 130.614C228.444 130.614 228.09 130.116 228.09 129.354V129.066H228.618V129.384C228.618 129.84 228.804 130.104 229.218 130.104C229.632 130.104 229.818 129.84 229.818 129.384C229.818 128.262 228.138 128.184 228.138 126.738C228.138 125.958 228.498 125.478 229.254 125.478C230.01 125.478 230.4 126 230.4 126.738Z" fill="#263238"/>
<path d="M144.204 163.8V164.25H143.67V163.77C143.67 163.314 143.49 163.044 143.07 163.044C142.65 163.044 142.47 163.314 142.47 163.77V166.434C142.47 166.884 142.656 167.16 143.07 167.16C143.484 167.16 143.67 166.884 143.67 166.434V165.78H144.204V166.38C144.204 167.142 143.844 167.646 143.064 167.646C142.284 167.646 141.936 167.142 141.936 166.38V163.8C141.936 163.038 142.296 162.534 143.064 162.534C143.832 162.534 144.204 163.032 144.204 163.8Z" fill="#263238"/>
<path d="M144.672 163.8C144.672 163.026 145.05 162.534 145.824 162.534C146.598 162.534 147 163.02 147 163.8V166.404C147.023 166.566 147.01 166.732 146.962 166.889C146.914 167.046 146.831 167.19 146.72 167.311C146.61 167.432 146.473 167.527 146.321 167.589C146.17 167.651 146.006 167.679 145.842 167.67C145.068 167.67 144.69 167.166 144.69 166.404L144.672 163.8ZM145.224 166.434C145.224 166.89 145.422 167.16 145.824 167.16C146.226 167.16 146.424 166.89 146.424 166.434V163.77C146.424 163.314 146.238 163.044 145.824 163.044C145.41 163.044 145.224 163.314 145.224 163.77V166.434Z" fill="#263238"/>
<path d="M148.014 167.616H147.51V162.6H148.2L149.4 166.2V162.6H149.898V167.64H149.298L148.014 163.566V167.616Z" fill="#263238"/>
<path d="M151.2 167.616V163.086H150.27V162.6H152.67V163.11H151.74V167.64L151.2 167.616Z" fill="#263238"/>
<path d="M153.348 166.602L153.15 167.616H152.634L153.6 162.6H154.41L155.376 167.64H154.8L154.608 166.626L153.348 166.602ZM153.42 166.116H154.542L153.972 163.212L153.42 166.116Z" fill="#263238"/>
<path d="M158.034 163.8V164.25H157.5V163.77C157.5 163.314 157.32 163.044 156.9 163.044C156.48 163.044 156.3 163.314 156.3 163.77V166.434C156.3 166.884 156.492 167.16 156.9 167.16C157.308 167.16 157.5 166.884 157.5 166.434V165.78H158.034V166.38C158.034 167.142 157.674 167.646 156.894 167.646C156.114 167.646 155.766 167.142 155.766 166.38V163.8C155.766 163.038 156.126 162.534 156.894 162.534C157.662 162.534 158.034 163.032 158.034 163.8Z" fill="#263238"/>
<path d="M159.27 167.616V163.086H158.346V162.6H160.746V163.11H159.822V167.64L159.27 167.616Z" fill="#263238"/>
<path d="M217.92 167.616H217.146L216.456 162.576H217.008L217.608 166.866L218.166 162.582H218.724L219.276 166.872L219.846 162.576H220.332L219.654 167.616H218.91L218.43 164.196L217.92 167.616Z" fill="#263238"/>
<path d="M220.734 163.8C220.734 163.026 221.118 162.534 221.886 162.534C222.654 162.534 223.044 163.026 223.044 163.8V166.404C223.044 167.166 222.666 167.67 221.886 167.67C221.106 167.67 220.734 167.166 220.734 166.404V163.8ZM221.292 166.434C221.292 166.89 221.484 167.16 221.892 167.16C222.3 167.16 222.492 166.89 222.492 166.434V163.77C222.492 163.314 222.3 163.044 221.892 163.044C221.484 163.044 221.292 163.314 221.292 163.77V166.434Z" fill="#263238"/>
<path d="M224.7 162.6C225.492 162.6 225.822 163.002 225.822 163.752V164.16C225.822 164.718 225.63 165.06 225.222 165.198C225.684 165.336 225.858 165.708 225.858 166.248V167.034C225.843 167.239 225.876 167.444 225.954 167.634H225.39C225.311 167.444 225.278 167.239 225.294 167.034V166.2C225.294 165.63 225.03 165.45 224.562 165.45H224.166V167.604H223.602V162.6H224.7ZM224.556 165C225.006 165 225.27 164.856 225.27 164.31V163.8C225.27 163.35 225.102 163.11 224.67 163.11H224.124V164.976L224.556 165Z" fill="#263238"/>
<path d="M227.274 165.426L226.974 165.924V167.616H226.416V162.6H226.974V165L228.318 162.564H228.882L227.61 164.862L228.924 167.604H228.324L227.274 165.426Z" fill="#263238"/>
<path d="M232.266 164.808V165.312H231.036V167.112H232.548V167.622H230.478V162.6H232.548V163.11H231.036V164.832L232.266 164.808Z" fill="#263238"/>
<path d="M234.318 165.438L233.478 167.616H232.944L233.958 165.018L233.01 162.6H233.61L234.39 164.616L235.176 162.6H235.698L234.738 165L235.746 167.598H235.146L234.318 165.438Z" fill="#263238"/>
<path d="M237.3 162.6C238.092 162.6 238.434 163.068 238.434 163.83V164.43C238.434 165.228 238.056 165.63 237.234 165.63H236.736V167.616H236.178V162.6H237.3ZM237.258 165.15C237.678 165.15 237.858 164.952 237.858 164.472V163.8C237.858 163.344 237.696 163.11 237.258 163.11H236.718V165.15H237.258Z" fill="#263238"/>
<path d="M240.666 164.808V165.312H239.43V167.112H240.942V167.622H238.872V162.6H240.942V163.11H239.43V164.832L240.666 164.808Z" fill="#263238"/>
<path d="M242.586 162.6C243.378 162.6 243.708 163.002 243.708 163.752V164.16C243.708 164.718 243.516 165.06 243.108 165.198C243.57 165.336 243.738 165.708 243.738 166.248V167.034C243.722 167.239 243.757 167.446 243.84 167.634H243.27C243.197 167.443 243.166 167.238 243.18 167.034V166.2C243.18 165.63 242.91 165.45 242.442 165.45H242.046V167.604H241.488V162.6H242.586ZM242.442 165C242.886 165 243.156 164.856 243.156 164.31V163.8C243.156 163.35 242.988 163.11 242.556 163.11H242.004V164.976L242.442 165Z" fill="#263238"/>
<path d="M244.86 162.6V167.64H244.302V162.6H244.86Z" fill="#263238"/>
<path d="M247.23 164.808V165.312H246V167.112H247.512V167.622H245.436V162.6H247.512V163.11H246V164.832L247.23 164.808Z" fill="#263238"/>
<path d="M248.526 167.616H248.022V162.6H248.736L249.9 166.2V162.6H250.398V167.64H249.798L248.508 163.566L248.526 167.616Z" fill="#263238"/>
<path d="M253.2 163.8V164.25H252.666V163.77C252.666 163.314 252.486 163.044 252.066 163.044C251.646 163.044 251.466 163.314 251.466 163.77V166.434C251.466 166.884 251.652 167.16 252.066 167.16C252.48 167.16 252.666 166.884 252.666 166.434V165.78H253.2V166.38C253.2 167.142 252.84 167.646 252.06 167.646C251.28 167.646 250.932 167.142 250.932 166.38V163.8C250.932 163.038 251.292 162.534 252.06 162.534C252.828 162.534 253.2 163.032 253.2 163.8Z" fill="#263238"/>
<path d="M255.504 164.808V165.312H254.304V167.112H255.81V167.622H253.74V162.6H255.81V163.11H254.304V164.832L255.504 164.808Z" fill="#263238"/>
<path d="M217.038 138.06H305.712" stroke="#263238" stroke-linecap="round" stroke-linejoin="round"/>
<path d="M217.038 145.134H305.712" stroke="#263238" stroke-linecap="round" stroke-linejoin="round"/>
<path d="M217.038 152.214H305.712" stroke="#263238" stroke-linecap="round" stroke-linejoin="round"/>
<path d="M141.276 138.06H203.304" stroke="#263238" stroke-linecap="round" stroke-linejoin="round"/>
<path d="M141.276 145.134H203.304" stroke="#263238" stroke-linecap="round" stroke-linejoin="round"/>
<path d="M141.276 152.214H203.304" stroke="#263238" stroke-linecap="round" stroke-linejoin="round"/>
<path d="M217.038 173.028H305.712" stroke="#263238" stroke-linecap="round" stroke-linejoin="round"/>
<path d="M217.038 180.102H305.712" stroke="#263238" stroke-linecap="round" stroke-linejoin="round"/>
<path d="M217.038 187.182H305.712" stroke="#263238" stroke-linecap="round" stroke-linejoin="round"/>
<path d="M141.276 173.028H203.304" stroke="#263238" stroke-linecap="round" stroke-linejoin="round"/>
<path d="M141.276 180.102H203.304" stroke="#263238" stroke-linecap="round" stroke-linejoin="round"/>
<path d="M141.276 187.182H203.304" stroke="#263238" stroke-linecap="round" stroke-linejoin="round"/>
<path d="M48.6 169.8L37.566 268.656C37.566 268.656 29.466 275.706 30.174 278.55C30.882 281.394 40.242 276.888 41.532 274.512C42.822 272.136 43.47 268.356 43.47 268.356L66.744 194.034L84.636 273.768C84.636 273.768 92.286 280.014 96.504 279.798C100.722 279.582 99.228 277.926 96.816 274.878C94.404 271.83 88.962 270.078 88.962 270.078L86.28 167.322L48.6 169.8Z" fill="#263238" stroke="#263238" stroke-linecap="round" stroke-linejoin="round"/>
<path d="M85.884 170.646L48.384 170.838L48.498 167.466L85.626 165.582L85.884 170.646Z" fill="#696969" stroke="#263238" stroke-linejoin="round"/>
<path d="M71.112 167.364H65.034V170.55H71.112V167.364Z" fill="white" stroke="#263238" stroke-linecap="round" stroke-linejoin="round"/>
<path d="M65.172 116.85L51.21 120.942L52.944 167.592L85.686 166.776L81.546 118.554L65.172 116.85Z" fill="white" stroke="#263238" stroke-linecap="round" stroke-linejoin="round"/>
<path d="M59.064 117.372L57.186 196.986L40.488 192.18L47.226 163.23L41.898 120.78L59.064 117.372Z" fill="#8B5CF6" stroke="#263238" stroke-linecap="round" stroke-linejoin="round"/>
<path d="M47.262 170.904L56.172 172.302L55.818 173.7L47.088 171.954" fill="#8B5CF6"/>
<path d="M47.262 170.904L56.172 172.302L55.818 173.7L47.088 171.954" stroke="#263238" stroke-linecap="round" stroke-linejoin="round"/>
<path d="M59.064 117.372L52.05 118.764L57.996 162.774L59.064 117.372Z" fill="#8B5CF6" stroke="#263238" stroke-linecap="round" stroke-linejoin="round"/>
<path d="M62.622 126.282L65.388 130.8L63.174 162.21L68.43 168.426L71.148 160.956L66.942 130.86L69.54 126.498L65.766 121.614L62.622 126.282Z" fill="#263238" stroke="#263238" stroke-linecap="round" stroke-linejoin="round"/>
<path d="M73.2 116.652L83.136 195.672L96.156 191.868L89.628 161.076L90.624 118.308L73.2 116.652Z" fill="#8B5CF6" stroke="#263238" stroke-linecap="round" stroke-linejoin="round"/>
<path d="M90.588 170.73L82.374 172.65L82.2 173.874L90.762 171.78" fill="#8B5CF6"/>
<path d="M90.588 170.73L82.374 172.65L82.2 173.874L90.762 171.78" stroke="#263238" stroke-linecap="round" stroke-linejoin="round"/>
<path d="M78.414 158.1L78.882 162.69L78.876 117.192L73.2 116.652L78.414 158.1Z" fill="#8B5CF6" stroke="#263238" stroke-linecap="round" stroke-linejoin="round"/>
<path d="M66.042 125.688L60.816 129.618L56.628 119.4L58.986 115.752L71.778 115.104L74.808 119.178L72.318 128.472L66.042 125.688Z" fill="white" stroke="#263238" stroke-linecap="round" stroke-linejoin="round"/>
<path d="M60.054 111.822L61.23 118.32L66.042 125.688L70.464 117.006L70.188 111.522L60.054 111.822Z" fill="white" stroke="#263238" stroke-linecap="round" stroke-linejoin="round"/>
<path d="M70.296 113.64L70.254 112.752L65.592 111.654L60.054 111.822L61.254 118.32L62.508 120.24C62.6637 120.185 62.816 120.121 62.964 120.048C65.898 118.566 69 115.14 70.296 113.64Z" fill="#263238" stroke="#263238" stroke-linecap="round" stroke-linejoin="round"/>
<path d="M41.898 120.78L18.186 149.478L33.936 168.138L40.284 164.01L32.496 148.116L44.124 139.704L41.898 120.78Z" fill="#8B5CF6" stroke="#263238" stroke-linecap="round" stroke-linejoin="round"/>
<path d="M32.502 148.116L26.352 144.894" stroke="#263238" stroke-linecap="round" stroke-linejoin="round"/>
<path d="M40.284 164.01L41.238 166.074L35.892 169.092L35.172 167.442L40.284 164.01Z" fill="white" stroke="#263238" stroke-linecap="round" stroke-linejoin="round"/>
<path d="M41.238 166.074L46.674 173.202L44.874 175.404L43.572 174.84L40.938 177.084C40.938 177.084 39.006 176.55 38.766 175.926C38.526 175.302 35.904 173.748 35.85 172.692C35.796 171.636 35.85 169.092 35.85 169.092L41.238 166.074Z" fill="white" stroke="#263238" stroke-linecap="round" stroke-linejoin="round"/>
<path d="M103.83 123.906C103.83 123.906 104.43 122.28 104.034 121.278C103.638 120.276 102.786 116.79 102.954 115.644C103.122 114.498 104.856 112.818 105.012 111.33C105.168 109.842 104.982 108.486 105.054 107.682C105.126 106.878 106.116 106.266 106.962 107.244C107.808 108.222 108.318 109.224 107.916 110.244C107.514 111.264 107.526 113.796 107.526 113.796C107.526 113.796 108.87 115.662 109.62 116.874C110.37 118.086 110.298 121.278 109.794 122.556C109.327 123.506 108.672 124.351 107.868 125.04L107.952 127.248L103.83 123.906Z" fill="white" stroke="#263238" stroke-linecap="round" stroke-linejoin="round"/>
<path d="M106.296 112.062C106.296 112.062 105.696 113.796 106.746 114.198C107.796 114.6 112.032 115.182 112.08 113.814C112.128 112.446 112.2 111.762 111.522 111.792C110.844 111.822 107.652 111.792 107.652 111.792C107.652 111.792 106.2 111.726 106.296 112.062Z" fill="white" stroke="#263238" stroke-linecap="round" stroke-linejoin="round"/>
<path d="M106.8 120.6C106.8 120.6 106.374 121.896 107.13 122.196C107.886 122.496 110.934 122.934 110.964 121.914C110.994 120.894 111.054 120.39 110.562 120.414C110.07 120.438 107.772 120.414 107.772 120.414C107.772 120.414 106.686 120.324 106.8 120.6Z" fill="white" stroke="#263238" stroke-linecap="round" stroke-linejoin="round"/>
<path d="M106.2 117.834C106.2 117.834 105.708 119.328 106.578 119.676C107.448 120.024 110.988 120.534 111.024 119.358C111.06 118.182 111.126 117.558 110.556 117.612C109.986 117.666 107.328 117.582 107.328 117.582C107.328 117.582 106.104 117.546 106.2 117.834Z" fill="white" stroke="#263238" stroke-linecap="round" stroke-linejoin="round"/>
<path d="M105.888 115.152C105.888 115.152 105.288 116.892 106.338 117.294C107.388 117.696 111.624 118.278 111.666 116.91C111.708 115.542 111.792 114.852 111.108 114.888C110.424 114.924 107.238 114.888 107.238 114.888C107.238 114.888 105.756 114.816 105.888 115.152Z" fill="white" stroke="#263238" stroke-linecap="round" stroke-linejoin="round"/>
<path d="M103.35 125.64L104.01 122.988L108.588 125.712L107.82 128.598L103.35 125.64Z" fill="white" stroke="#263238" stroke-linecap="round" stroke-linejoin="round"/>
<path d="M90.6 118.308L99.372 136.962L103.68 124.962L107.88 128.976L103.56 151.242C103.408 151.907 103.07 152.516 102.586 152.997C102.101 153.477 101.49 153.81 100.823 153.957C100.156 154.103 99.4619 154.057 98.8204 153.824C98.1789 153.591 97.617 153.18 97.2 152.64L90.18 142.86L90.6 118.308Z" fill="#8B5CF6" stroke="#263238" stroke-linecap="round" stroke-linejoin="round"/>
<path d="M99.396 136.962L96.936 142.758" stroke="#263238" stroke-linecap="round" stroke-linejoin="round"/>
<path d="M90.372 134.55L94.644 148.506L90.18 142.86L90.372 134.55Z" fill="#263238" stroke="#263238" stroke-linecap="round" stroke-linejoin="round"/>
<path d="M55.968 104.232C55.968 104.232 54.168 102.342 53.964 103.728C53.76 105.114 54.462 107.502 55.566 108.36C56.67 109.218 57.672 107.796 57.672 107.796L55.968 104.232Z" fill="white" stroke="#263238" stroke-linecap="round" stroke-linejoin="round"/>
<path d="M72.738 103.38C72.738 103.38 74.304 101.322 74.682 102.672C75.06 104.022 74.568 106.482 73.554 107.472C72.54 108.462 71.406 107.124 71.406 107.124L72.738 103.38Z" fill="white" stroke="#263238" stroke-linecap="round" stroke-linejoin="round"/>
<path d="M56.676 106.2L54.972 102.6C53.6088 100.686 52.6643 98.5071 52.2 96.204C51.39 92.292 52.746 89.004 54.522 88.02C55.5223 87.4339 56.6979 87.2213 57.84 87.42C57.84 87.42 58.176 85.122 63.708 83.166C69.24 81.21 75.354 84.708 75.264 85.926C75.174 87.144 73.68 87.684 73.68 87.684C73.68 87.684 78.024 89.286 76.452 91.344C75.4832 92.5957 74.2308 93.5992 72.798 94.272C73.1113 95.3092 73.3676 96.3628 73.566 97.428C73.788 98.784 72.564 104.628 72.564 104.628L69.564 96.414L60.15 96.888C60.15 96.888 59.592 100.878 58.602 102.288C57.9769 103.363 57.6324 104.579 57.6 105.822C57.6 105.822 57.192 107.364 56.676 106.2Z" fill="#696969" stroke="#263238" stroke-linejoin="round"/>
<path d="M58.356 91.326C58.335 93.7791 58.1546 96.2283 57.816 98.658C57.615 100.011 56.9178 101.241 55.86 102.108C55.86 102.108 57.06 107.676 58.578 110.64C60.096 113.604 63.264 116.04 66.444 115.722C69.624 115.404 72.18 111.78 72.48 108.72C72.78 105.66 71.28 94.32 71.28 94.32C71.28 94.32 61.332 96.048 58.356 91.326Z" fill="white" stroke="#263238" stroke-linecap="round" stroke-linejoin="round"/>
<path d="M62.79 108.876C62.79 108.876 64.512 110.352 68.352 109.044" stroke="#263238" stroke-linecap="round" stroke-linejoin="round"/>
<path d="M59.19 102.762C59.19 102.762 60.99 101.682 62.568 102.588" stroke="#263238" stroke-linecap="round" stroke-linejoin="round"/>
<path d="M59.064 100.2C59.064 100.2 59.262 98.496 62.064 98.358" stroke="#263238" stroke-linecap="round" stroke-linejoin="round"/>
<path d="M66.6 98.01C67.239 97.7464 67.9459 97.6957 68.6159 97.8654C69.2859 98.035 69.8835 98.4161 70.32 98.952" stroke="#263238" stroke-linecap="round" stroke-linejoin="round"/>
<path d="M65.58 100.74C65.58 100.74 66.036 104.106 66.054 104.526C66.072 104.946 67.494 105.018 67.116 105.888C66.738 106.758 65.508 107.688 64.488 107.004" stroke="#263238" stroke-linecap="round" stroke-linejoin="round"/>
<path d="M69.306 101.82C69.306 102.42 69.048 102.966 68.658 102.984C68.268 103.002 67.932 102.516 67.896 101.892C67.86 101.268 68.154 100.752 68.544 100.734C68.934 100.716 69.276 101.202 69.306 101.82Z" fill="#263238"/>
</svg>
