<svg width="128" height="162" viewBox="0 0 128 162" fill="none" xmlns="http://www.w3.org/2000/svg">
<path d="M0 80.8421C0 67.0333 4.37329 54.2459 11.8104 43.7895H43.7895V49.7817C33.6498 56.3929 26.9474 67.8348 26.9474 80.8421C26.9474 101.306 43.5364 117.895 64 117.895V144.842C28.6538 144.842 0 116.188 0 80.8421Z" fill="#09090B"/>
<path d="M116.19 117.895C123.627 107.438 128 94.6509 128 80.8421C128 45.4959 99.3462 16.8421 64 16.8421V43.7895C84.4636 43.7895 101.053 60.3785 101.053 80.8421C101.053 93.8494 94.3502 105.291 84.2105 111.903V117.895H116.19Z" fill="#09090B"/>
</svg>
