<svg width="128" height="128" viewBox="0 0 128 128" fill="none" xmlns="http://www.w3.org/2000/svg">
<g clip-path="url(#clip0_1_26)">
<path d="M100.499 0H27.4286C12.2802 0 0 12.2802 0 27.4286V100.527C0 115.675 12.2802 127.955 27.4286 127.955H100.499C115.647 127.955 127.927 115.675 127.927 100.527V27.4286C127.927 12.2802 115.647 0 100.499 0Z" fill="#7C3AED"/>
<path d="M26 64C26 55.801 28.5966 48.2085 33.0124 42H52V45.5579C45.9796 49.4833 42 56.2769 42 64C42 76.1503 51.8497 86 64 86V102C43.0132 102 26 84.9868 26 64Z" fill="white"/>
<path d="M94.9876 86C99.4034 79.7915 102 72.199 102 64C102 43.0132 84.9868 26 64 26V42C76.1503 42 86 51.8497 86 64C86 71.7231 82.0204 78.5167 76 82.4421V86H94.9876Z" fill="white"/>
</g>
<defs>
<clipPath id="clip0_1_26">
<rect width="128" height="128" fill="white"/>
</clipPath>
</defs>
</svg>
