<svg width="17" height="17" viewBox="0 0 17 17" fill="none" xmlns="http://www.w3.org/2000/svg">
<path d="M5.72999 1.02625C4.13135 1.58083 2.75267 2.63346 1.79648 4.0295C0.840291 5.42554 0.356982 7.09143 0.417546 8.78245C0.47811 10.4735 1.07935 12.1005 2.13296 13.4246C3.18658 14.7486 4.63702 15.6999 6.27124 16.1387C7.59615 16.4806 8.98426 16.4956 10.3162 16.1825C11.5229 15.9115 12.6385 15.3317 13.5537 14.5C14.5063 13.6079 15.1978 12.4731 15.5537 11.2175C15.9406 9.85208 16.0095 8.41616 15.755 7.02H8.31499V10.1062H12.6237C12.5376 10.5985 12.3531 11.0683 12.0812 11.4875C11.8093 11.9068 11.4556 12.2669 11.0412 12.5462C10.5151 12.8943 9.92199 13.1285 9.29999 13.2337C8.67617 13.3497 8.03631 13.3497 7.41249 13.2337C6.78023 13.103 6.18212 12.8421 5.65624 12.4675C4.81143 11.8695 4.17709 11.0199 3.84374 10.04C3.50476 9.04174 3.50476 7.95951 3.84374 6.96125C4.08103 6.26152 4.47329 5.62442 4.99124 5.0975C5.58398 4.48343 6.33441 4.04449 7.16019 3.82884C7.98597 3.61319 8.85519 3.62916 9.67249 3.875C10.311 4.07099 10.8948 4.41342 11.3775 4.875C11.8633 4.39166 12.3483 3.90708 12.8325 3.42125C13.0825 3.16 13.355 2.91125 13.6012 2.64375C12.8644 1.95809 11.9996 1.42457 11.0562 1.07375C9.33837 0.449985 7.45872 0.433222 5.72999 1.02625Z" fill="white"/>
<path d="M5.73 1.02624C7.45858 0.432816 9.33824 0.449138 11.0563 1.07249C11.9998 1.4257 12.8642 1.96179 13.6 2.64999C13.35 2.91749 13.0863 3.16749 12.8313 3.42749C12.3463 3.91166 11.8617 4.39416 11.3775 4.87499C10.8948 4.41342 10.311 4.07098 9.6725 3.87499C8.85547 3.6283 7.98627 3.6114 7.16028 3.82617C6.33428 4.04094 5.58339 4.47907 4.99 5.09249C4.47204 5.61941 4.07978 6.25652 3.8425 6.95624L1.25125 4.94999C2.17876 3.1107 3.78469 1.70377 5.73 1.02624Z" fill="#E33629"/>
<path d="M0.563749 6.93751C0.703025 6.24725 0.934253 5.5788 1.25125 4.95001L3.8425 6.96126C3.50352 7.95952 3.50352 9.04175 3.8425 10.04C2.97917 10.7067 2.11542 11.3767 1.25125 12.05C0.457687 10.4704 0.215665 8.67064 0.563749 6.93751Z" fill="#F8BD00"/>
<path d="M8.31501 7.01874H15.755C16.0095 8.4149 15.9407 9.85082 15.5538 11.2162C15.1978 12.4718 14.5064 13.6067 13.5538 14.4987C12.7175 13.8462 11.8775 13.1987 11.0413 12.5462C11.4559 12.2666 11.8097 11.9061 12.0816 11.4864C12.3536 11.0667 12.538 10.5964 12.6238 10.1037H8.31501C8.31376 9.07624 8.31501 8.04749 8.31501 7.01874Z" fill="#587DBD"/>
<path d="M1.25 12.05C2.11417 11.3833 2.97792 10.7133 3.84125 10.04C4.17526 11.0202 4.81051 11.8698 5.65625 12.4675C6.18376 12.8403 6.78316 13.0991 7.41625 13.2275C8.04007 13.3435 8.67993 13.3435 9.30375 13.2275C9.92574 13.1222 10.5189 12.888 11.045 12.54C11.8813 13.1925 12.7212 13.84 13.5575 14.4925C12.6424 15.3246 11.5268 15.9048 10.32 16.1762C8.98801 16.4894 7.5999 16.4743 6.275 16.1325C5.22713 15.8527 4.24834 15.3595 3.4 14.6837C2.50208 13.9708 1.76869 13.0724 1.25 12.05Z" fill="#319F43"/>
</svg>
